{"title":"Up in the Air (2009) DVDRip XviD AC3 peaSoup","uid":8859013,"size":1459328164,"categoryP":"video","categoryS":"movies","magnet":"?xt=urn:btih:fd4cd1121386981cc8bd7210cdf42a5921452b77&amp;dn=Up+in+the+Air+%282009%29+DVDRip+XviD+AC3+peaSoup&amp;tr=udp%3A%2F%2Ftracker.openbittorrent.com%3A80&amp;tr=udp%3A%2F%2Fopen.demonii.com%3A1337&amp;tr=udp%3A%2F%2Ftracker.coppersurfer.tk%3A6969&amp;tr=udp%3A%2F%2Fexodus.desync.com%3A6969","seeders":1,"leechers":0,"uploader":"peaSoup","files":-1,"time":1377730952,"description":"Storyline\n\nRyan Bingham is a corporate downsizing expert whose cherished life on the road is threatened just as he is on the cusp of reaching ten million frequent flyer miles and just after he's met the frequent-traveler woman of his dreams.                  &lt;a href=&quot; http://imageshack.us/a/img825/3460/j6j7.jpg&quot; rel=&quot;nofollow&quot; target=&quot;_NEW&quot;&gt; http://imageshack.us/a/img825/3460/j6j7.jpg&lt;/a&gt;                                         &lt;a href=&quot; http://imageshack.us/a/img211/4148/s8z8.jpg&quot; rel=&quot;nofollow&quot; target=&quot;_NEW&quot;&gt; http://imageshack.us/a/img211/4148/s8z8.jpg&lt;/a&gt;                                         &lt;a href=&quot; http://imageshack.us/a/img825/1885/bd6o.jpg&quot; rel=&quot;nofollow&quot; target=&quot;_NEW&quot;&gt; http://imageshack.us/a/img825/1885/bd6o.jpg&lt;/a&gt;                                         &lt;a href=&quot; http://imageshack.us/a/img593/9525/jf9s.jpg&quot; rel=&quot;nofollow&quot; target=&quot;_NEW&quot;&gt; http://imageshack.us/a/img593/9525/jf9s.jpg&lt;/a&gt;                                         &lt;a href=&quot; http://imageshack.us/a/img534/8654/7y08.jpg&quot; rel=&quot;nofollow&quot; target=&quot;_NEW&quot;&gt; http://imageshack.us/a/img534/8654/7y08.jpg&lt;/a&gt;                                          Format                                   : AVI\nFormat/Info                              : Audio Video Interleave\nFormat profile                           : OpenDML\nFile size                                : 1.36 GiB\nDuration                                 : 1h 44mn\nOverall bit rate                         : 1 855 Kbps\nMovie name                               : Up in the Air (2009) DVDRip XviD AC3 peaSoup\nWriting application                      : Lavf53.21.0\nOriginal source form/Name                : UP_IN_THE_AIR\n\nVideo\nID                                       : 0\nFormat                                   : MPEG-4 Visual\nFormat profile                           : Advanced Simple@L5\nFormat settings, BVOP                    : 2\nFormat settings, QPel                    : No\nFormat settings, GMC                     : No warppoints\nFormat settings, Matrix                  : Default (H.263)\nMuxing mode                              : Packed bitstream\nCodec ID                                 : XVID\nCodec ID/Hint                            : XviD\nDuration                                 : 1h 44mn\nBit rate                                 : 1 395 Kbps\nWidth                                    : 720 pixels\nHeight                                   : 388 pixels\nDisplay aspect ratio                     : 1.85:1\nFrame rate                               : 25.000 fps\nColor space                              : YUV\nChroma subsampling                       : 4:2:0\nBit depth                                : 8 bits\nScan type                                : Progressive\nCompression mode                         : Lossy\nBits/(Pixel*Frame)                       : 0.200\nStream size                              : 1.02 GiB (75%)\nWriting library                          : XviD 1.2.1 (UTC 2008-12-04)\n\nAudio\nID                                       : 1\nFormat                                   : AC-3\nFormat/Info                              : Audio Coding 3\nMode extension                           : CM (complete main)\nFormat settings, Endianness              : Big\nCodec ID                                 : 2000\nDuration                                 : 1h 44mn\nBit rate mode                            : Constant\nBit rate                                 : 448 Kbps\nChannel(s)                               : 6 channels\nChannel positions                        : Front: L C R, Side: L R, LFE\nSampling rate                            : 48.0 KHz\nBit depth                                : 16 bits\nCompression mode                         : Lossy\nStream size                              : 336 MiB (24%)\nAlignment                                : Aligned on interleaves\nInterleave, duration                     : 32 ms (0.80 video frame)\n\n","torrent":{"xt":"urn:btih:fd4cd1121386981cc8bd7210cdf42a5921452b77","amp;dn":"Up+in+the+Air+%282009%29+DVDRip+XviD+AC3+peaSoup","amp;tr":["udp%3A%2F%2Ftracker.openbittorrent.com%3A80","udp%3A%2F%2Fopen.demonii.com%3A1337","udp%3A%2F%2Ftracker.coppersurfer.tk%3A6969","udp%3A%2F%2Fexodus.desync.com%3A6969"],"infoHash":"fd4cd1121386981cc8bd7210cdf42a5921452b77","infoHashBuffer":{"type":"Buffer","data":[253,76,209,18,19,134,152,28,200,189,114,16,205,244,42,89,33,69,43,119]},"announce":[],"urlList":[]}}